<?xml version="1.0" encoding="utf-8"?>
<!-- Generator: Adobe Illustrator 16.0.0, SVG Export Plug-In . SVG Version: 6.00 Build 0)  -->
<!DOCTYPE svg PUBLIC "-//W3C//DTD SVG 1.1//EN" "http://www.w3.org/Graphics/SVG/1.1/DTD/svg11.dtd">
<svg version="1.1" id="图层_1" xmlns="http://www.w3.org/2000/svg" xmlns:xlink="http://www.w3.org/1999/xlink" x="0px" y="0px"
	 width="110.667px" height="110.667px" viewBox="9.167 9.167 110.667 110.667" enable-background="new 9.167 9.167 110.667 110.667"
	 xml:space="preserve">
<path d="M32.16,69.785h18.292c5.748,0,10.461,4.699,10.461,10.462v18.292c0,5.748-4.699,10.463-10.461,10.463H32.16
	c-5.748,0-10.461-4.699-10.461-10.463V80.247C21.699,74.5,26.412,69.785,32.16,69.785z M32.16,22.739h18.292
	c5.748,0,10.461,4.699,10.461,10.461v18.292c0,5.748-4.699,10.461-10.461,10.461H32.16c-5.748,0-10.461-4.698-10.461-10.461V33.201
	C21.699,27.453,26.412,22.739,32.16,22.739z M79.207,69.785h18.291c5.748,0,10.447,4.699,10.447,10.462v18.292
	c0,5.748-4.699,10.463-10.447,10.463H79.207c-5.748,0-10.463-4.699-10.463-10.463V80.247C68.744,74.5,73.459,69.785,79.207,69.785z
	 M67.969,35.026l12.804-12.803c4.182-4.182,10.72-4.182,14.901,0l12.803,12.803c4.182,4.181,4.182,10.72,0,14.901L95.674,62.73
	c-4.182,4.182-10.72,4.182-14.901,0L67.969,49.927C64.046,45.746,64.046,38.949,67.969,35.026z"/>
</svg>
