<svg xmlns="http://www.w3.org/2000/svg" width="110.667" height="110.667" viewBox="9.167 9.167 110.667 110.667"><path d="M32.16 69.785h18.292c5.748 0 10.461 4.699 10.461 10.462v18.292c0 5.748-4.699 10.463-10.461 10.463H32.16c-5.748 0-10.461-4.699-10.461-10.463V80.247c0-5.747 4.713-10.462 10.461-10.462zm0-47.046h18.292c5.748 0 10.461 4.699 10.461 10.461v18.292c0 5.748-4.699 10.461-10.461 10.461H32.16c-5.748 0-10.461-4.698-10.461-10.461V33.201c0-5.748 4.713-10.462 10.461-10.462zm47.047 47.046h18.291c5.748 0 10.447 4.699 10.447 10.462v18.292c0 5.748-4.699 10.463-10.447 10.463H79.207c-5.748 0-10.463-4.699-10.463-10.463V80.247c0-5.747 4.715-10.462 10.463-10.462zM67.969 35.026l12.804-12.803c4.182-4.182 10.72-4.182 14.901 0l12.803 12.803c4.182 4.181 4.182 10.72 0 14.901L95.674 62.73c-4.182 4.182-10.72 4.182-14.901 0L67.969 49.927c-3.923-4.181-3.923-10.978 0-14.901z"/></svg>