<svg t="1569657795391" class="icon" viewBox="0 0 1024 1024" version="1.1" xmlns="http://www.w3.org/2000/svg" p-id="6251" width="128" height="128"><path d="M128 213.333333v597.333334c0 46.933333 38.4 85.333333 85.333333 85.333333h597.333334c46.933333 0 85.333333-38.4 85.333333-85.333333V213.333333c0-46.933333-38.4-85.333333-85.333333-85.333333H213.333333c-46.933333 0-85.333333 38.4-85.333333 85.333333z m512 170.666667c0 72.533333-55.466667 128-128 128s-128-55.466667-128-128 55.466667-128 128-128 128 55.466667 128 128z m-384 341.333333c0-85.333333 170.666667-132.266667 256-132.266666s256 46.933333 256 132.266666v42.666667H256v-42.666667z" p-id="6252"></path></svg>