<?xml version="1.0" encoding="utf-8"?>
<!-- Generator: Adobe Illustrator 16.0.0, SVG Export Plug-In . SVG Version: 6.00 Build 0)  -->
<!DOCTYPE svg PUBLIC "-//W3C//DTD SVG 1.1//EN" "http://www.w3.org/Graphics/SVG/1.1/DTD/svg11.dtd">
<svg version="1.1" id="图层_1" xmlns="http://www.w3.org/2000/svg" xmlns:xlink="http://www.w3.org/1999/xlink" x="0px" y="0px"
	 width="101.332px" height="118px" viewBox="13.334 4.833 101.332 118" enable-background="new 13.334 4.833 101.332 118"
	 xml:space="preserve">
<path d="M17.167,28.574v72.853c0,5.724,4.683,10.406,10.407,10.406h72.853c5.724,0,10.406-4.683,10.406-10.406V28.574
	c0-5.724-4.683-10.407-10.406-10.407H27.574C21.85,18.167,17.167,22.85,17.167,28.574z M79.611,49.389
	C79.611,58.235,72.846,65,64,65c-8.845,0-15.611-6.765-15.611-15.611c0-8.847,6.766-15.611,15.611-15.611
	C72.846,33.778,79.611,40.542,79.611,49.389z M32.778,91.018c0-10.406,20.815-16.132,31.222-16.132
	c10.406,0,31.222,5.726,31.222,16.132v5.204H32.778V91.018z"/>
</svg>
