<svg xmlns="http://www.w3.org/2000/svg" width="142" height="142" viewBox="-6.5 -6.5 142 142"><path d="M122.951 102.455c.422 1.268.746 2.91.945 4.9.198 1.989.298.397.298 2.387s-.149 3.881-.423 5.672c-.299 1.791-.746 3.134-1.318 4.055-.423.597-1.642 1.219-3.631 1.915-1.99.696-22.759 6.616-51.962 6.616-26.689 0-49.673-4.328-53.329-5.148-3.656-.821-5.845-1.518-6.616-2.09-.945-.696-1.642-2.761-2.089-6.219-.448-3.482-.274-4.353.572-9.775.522-3.134 1.791-5.521 3.806-7.113 2.04-1.617 4.453-2.886 7.188-3.806 2.761-.945 15.546-5.349 18.481-6.119s5.497-1.866 7.686-3.308c1.791-1.096 3.159-2.164 4.129-3.185.97-1.02 1.667-2.04 2.04-3.06s.572-2.064.572-3.184c0-1.094-.05-2.289-.125-3.582-.174-2.039-.821-3.606-1.965-4.701a64.508 64.508 0 0 0-3.88-3.432c-.697-.597-1.269-1.418-1.791-2.487a41.015 41.015 0 0 1-1.393-3.234 249.982 249.982 0 0 1-1.269-3.93 5.486 5.486 0 0 1-1.791-.895c-.522-.423-1.069-1.02-1.667-1.791-.597-.771-1.094-1.866-1.542-3.308-.423-1.418-.572-2.736-.423-3.88.125-1.144.348-2.139.696-2.985.324-.945.846-1.816 1.542-2.687-.075-3.208.075-6.442.522-9.676.323-2.711.945-5.597 1.84-8.656.896-3.059 2.189-5.82 3.88-8.258 1.617-2.289 3.408-4.179 5.397-5.671 1.99-1.492 4.005-2.661 6.044-3.507S57.454.895 59.543.522C61.612.199 63.627 0 65.592 0c2.438 0 4.826.298 7.064.896s4.328 1.343 6.293 2.289c1.939.945 3.706 1.965 5.198 3.109 1.542 1.144 2.761 2.313 3.706 3.507a29.274 29.274 0 0 1 4.775 8.955c1.07 3.258 1.816 6.318 2.215 9.203.521 3.383.721 6.791.646 10.173.597.323 1.069.846 1.393 1.542.324.597.622 1.343.82 2.289.199.945.225 2.064.051 3.433-.249 1.791-.672 3.184-1.194 4.253-.571 1.069-1.169 1.89-1.841 2.487-.771.696-1.566 1.144-2.412 1.393a45.521 45.521 0 0 1-1.145 3.93 37.565 37.565 0 0 1-1.443 3.233c-.571 1.069-1.168 1.89-1.84 2.487a19.69 19.69 0 0 1-2.164 1.716c-.697.448-1.269.945-1.791 1.442-.522.522-.945 1.119-1.269 1.841s-.597 1.592-.771 2.612a15.492 15.492 0 0 0-.25 3.88c.075 1.294.424 2.637 1.021 3.931.597 1.293 1.567 2.561 2.935 3.756 1.344 1.193 3.185 2.238 5.473 3.184 2.114.846 4.453 1.592 6.939 2.213 2.513.646 12.586 4.975 14.9 5.871 2.313.895 4.402 2.014 6.218 3.357 1.768 1.493 3.061 3.258 3.832 5.473zm-56.513 17.287c.423 0 1.07-.273 1.965-.821.896-.571 1.766-1.194 2.611-1.965s1.593-1.542 2.215-2.288c.646-.771.945-1.344.945-1.791 0-.522-.125-1.393-.373-2.687-.25-1.269-.572-2.687-.896-4.179-.322-1.543-.695-3.035-1.02-4.527-.323-1.492-.646-2.686-.895-3.631.846-.697 1.566-1.418 2.163-2.215.597-.82.896-1.641.896-2.486 0-.697-.224-1.369-.696-2.09a8.168 8.168 0 0 0-1.592-1.84 53.98 53.98 0 0 0-2.164-1.791h-6.343a16.396 16.396 0 0 0-2.164 1.791c-.522.521-.97 1.094-1.393 1.79s-.646 1.343-.646 2.04c0 .521.298 1.193.945 2.039a14.205 14.205 0 0 0 2.338 2.413c-.249.771-.597 1.866-1.02 3.308a78.986 78.986 0 0 0-1.194 4.527 208.83 208.83 0 0 0-1.02 4.453c-.299 1.393-.423 2.412-.423 3.109 0 .422.298 1.02.945 1.79a18.036 18.036 0 0 0 2.289 2.288 23.9 23.9 0 0 0 2.612 1.965c.87.499 1.516.798 1.915.798z"/></svg>