<?xml version="1.0" encoding="utf-8"?>
<!-- Generator: Adobe Illustrator 16.0.0, SVG Export Plug-In . SVG Version: 6.00 Build 0)  -->
<!DOCTYPE svg PUBLIC "-//W3C//DTD SVG 1.1//EN" "http://www.w3.org/Graphics/SVG/1.1/DTD/svg11.dtd">
<svg version="1.1" id="图层_1" xmlns="http://www.w3.org/2000/svg" xmlns:xlink="http://www.w3.org/1999/xlink" x="0px" y="0px"
	 width="142px" height="142px" viewBox="-6.5 -6.5 142 142" enable-background="new -6.5 -6.5 142 142" xml:space="preserve">
<path d="M122.951,102.455c0.422,1.268,0.746,2.91,0.945,4.9c0.198,1.989,0.298,0.397,0.298,2.387c0,1.99-0.149,3.881-0.423,5.672
	c-0.299,1.791-0.746,3.134-1.318,4.055c-0.423,0.597-1.642,1.219-3.631,1.915C116.832,122.08,96.063,128,66.86,128
	c-26.689,0-49.673-4.328-53.329-5.148c-3.656-0.821-5.845-1.518-6.616-2.09c-0.945-0.696-1.642-2.761-2.089-6.219
	c-0.448-3.482-0.274-4.353,0.572-9.775c0.522-3.134,1.791-5.521,3.806-7.113c2.04-1.617,4.453-2.886,7.188-3.806
	c2.761-0.945,15.546-5.349,18.481-6.119s5.497-1.866,7.686-3.308c1.791-1.096,3.159-2.164,4.129-3.185
	c0.97-1.02,1.667-2.04,2.04-3.06s0.572-2.064,0.572-3.184c0-1.094-0.05-2.289-0.125-3.582c-0.174-2.039-0.821-3.606-1.965-4.701
	c-1.145-1.094-2.413-2.238-3.88-3.432c-0.697-0.597-1.269-1.418-1.791-2.487c-0.522-1.07-0.97-2.139-1.393-3.234
	c-0.423-1.269-0.846-2.587-1.269-3.93c-0.597-0.174-1.194-0.447-1.791-0.895c-0.522-0.423-1.069-1.02-1.667-1.791
	c-0.597-0.771-1.094-1.866-1.542-3.308c-0.423-1.418-0.572-2.736-0.423-3.88c0.125-1.144,0.348-2.139,0.696-2.985
	c0.324-0.945,0.846-1.816,1.542-2.687c-0.075-3.208,0.075-6.442,0.522-9.676c0.323-2.711,0.945-5.597,1.84-8.656
	c0.896-3.059,2.189-5.82,3.88-8.258c1.617-2.289,3.408-4.179,5.397-5.671c1.99-1.492,4.005-2.661,6.044-3.507
	s4.079-1.418,6.168-1.791C61.612,0.199,63.627,0,65.592,0c2.438,0,4.826,0.298,7.064,0.896s4.328,1.343,6.293,2.289
	c1.939,0.945,3.706,1.965,5.198,3.109c1.542,1.144,2.761,2.313,3.706,3.507c2.115,2.711,3.707,5.696,4.775,8.955
	c1.07,3.258,1.816,6.318,2.215,9.203c0.521,3.383,0.721,6.791,0.646,10.173c0.597,0.323,1.069,0.846,1.393,1.542
	c0.324,0.597,0.622,1.343,0.82,2.289c0.199,0.945,0.225,2.064,0.051,3.433c-0.249,1.791-0.672,3.184-1.194,4.253
	c-0.571,1.069-1.169,1.89-1.841,2.487c-0.771,0.696-1.566,1.144-2.412,1.393c-0.324,1.343-0.722,2.686-1.145,3.93
	c-0.423,1.094-0.92,2.188-1.443,3.233c-0.571,1.069-1.168,1.89-1.84,2.487c-0.771,0.696-1.468,1.244-2.164,1.716
	c-0.697,0.448-1.269,0.945-1.791,1.442c-0.522,0.522-0.945,1.119-1.269,1.841s-0.597,1.592-0.771,2.612
	c-0.25,1.268-0.324,2.562-0.25,3.88c0.075,1.294,0.424,2.637,1.021,3.931c0.597,1.293,1.567,2.561,2.935,3.756
	c1.344,1.193,3.185,2.238,5.473,3.184c2.114,0.846,4.453,1.592,6.939,2.213c2.513,0.646,12.586,4.975,14.9,5.871
	c2.313,0.895,4.402,2.014,6.218,3.357C120.887,98.475,122.18,100.24,122.951,102.455L122.951,102.455z M66.438,119.742
	c0.423,0,1.07-0.273,1.965-0.821c0.896-0.571,1.766-1.194,2.611-1.965s1.593-1.542,2.215-2.288c0.646-0.771,0.945-1.344,0.945-1.791
	c0-0.522-0.125-1.393-0.373-2.687c-0.25-1.269-0.572-2.687-0.896-4.179c-0.322-1.543-0.695-3.035-1.02-4.527
	c-0.323-1.492-0.646-2.686-0.895-3.631c0.846-0.697,1.566-1.418,2.163-2.215c0.597-0.82,0.896-1.641,0.896-2.486
	c0-0.697-0.224-1.369-0.696-2.09c-0.448-0.721-0.995-1.318-1.592-1.84c-0.696-0.598-1.394-1.195-2.164-1.791h-6.343
	c-0.846,0.596-1.567,1.193-2.164,1.791c-0.522,0.521-0.97,1.094-1.393,1.79s-0.646,1.343-0.646,2.04
	c0,0.521,0.298,1.193,0.945,2.039c0.647,0.846,1.418,1.667,2.338,2.413c-0.249,0.771-0.597,1.866-1.02,3.308
	c-0.423,1.418-0.821,2.936-1.194,4.527c-0.373,1.567-0.721,3.06-1.02,4.453c-0.299,1.393-0.423,2.412-0.423,3.109
	c0,0.422,0.298,1.02,0.945,1.79c0.647,0.771,1.393,1.542,2.289,2.288c0.896,0.771,1.766,1.418,2.612,1.965
	C65.393,119.443,66.039,119.742,66.438,119.742L66.438,119.742z"/>
</svg>
