<svg class="icon" viewBox="0 0 1024 1024" xmlns="http://www.w3.org/2000/svg" width="200" height="200"><path d="M508.258 62.162c-251.137 0-454.765 203.622-454.765 454.765s203.622 454.765 454.765 454.765S963.023 768.07 963.023 516.927c0-251.137-203.622-454.765-454.765-454.765zm38.112 706.947v85.107h-81.972v-78.317c-55.344-2.61-109.121-18.274-140.449-35.503l24.54-96.59c34.462 18.8 83.538 36.549 137.317 36.549 48.031 0 79.886-18.8 79.886-51.166 0-31.327-26.627-51.166-88.237-72.052-88.237-29.763-148.804-71.01-148.804-151.413 0-73.618 51.166-130.529 139.405-147.236v-78.317h80.931v72.574c54.302 1.566 91.892 14.097 120.609 27.148l-24.54 93.457c-20.885-9.921-59.523-29.235-119.041-29.235-53.776 0-71.01 24.017-71.01 46.989 0 26.627 28.714 44.902 100.249 69.964 98.157 34.983 137.317 80.406 137.317 155.59 0 73.618-51.166 136.799-146.19 152.459z"/></svg>