<?xml version="1.0" encoding="utf-8"?>
<!-- Generator: Adobe Illustrator 16.0.0, SVG Export Plug-In . SVG Version: 6.00 Build 0)  -->
<!DOCTYPE svg PUBLIC "-//W3C//DTD SVG 1.1//EN" "http://www.w3.org/Graphics/SVG/1.1/DTD/svg11.dtd">
<svg version="1.1" id="图层_1" xmlns="http://www.w3.org/2000/svg" xmlns:xlink="http://www.w3.org/1999/xlink" x="0px" y="0px"
	 width="155px" height="153.5px" viewBox="-13 -11.5 155 153.5" enable-background="new -13 -11.5 155 153.5" xml:space="preserve">
<path d="M64,0C28.633,0,0,28.633,0,64c0,35.367,28.633,64,64,64c35.367,0,64-28.633,64-64C128,28.633,99.367,0,64,0z M84.865,60.893
	v7.177H68.439v9.988h16.426v7.177H68.439v14.354h-8.879V85.234H42.617v-7.177h16.87v-9.988h-16.87v-7.177h14.206L39.436,28.412
	h10.21L61.78,53.715c0.666,1.406,1.406,3.182,2.294,5.401h0.296c0.592-1.775,1.405-3.625,2.368-5.623l12.207-25.082h9.619
	L70.881,60.893H84.865z"/>
</svg>
