<svg xmlns="http://www.w3.org/2000/svg" width="149.25" height="152" viewBox="24 24 149.25 152"><path d="M80.953 114.844a4.885 4.885 0 0 1-4.883-4.883V48.848c0-12.93 10.078-23.457 22.461-23.457s22.461 10.527 22.461 23.457v59.16c0 2.695-2.188 4.883-4.883 4.883s-4.883-2.188-4.883-4.883v-59.16c0-7.559-5.703-13.691-12.695-13.691S85.836 41.29 85.836 48.848v61.113a4.885 4.885 0 0 1-4.883 4.883zm45.996-67.696h14.824v9.043h-14.824v-9.043zm0 13.672h14.824v9.043h-14.824V60.82zm0 13.477h14.824v9.043h-14.824v-9.043z"/><path d="M98.531 174.824c-20.723 0-37.578-16.855-37.578-37.578 0-12.5 6.191-24.16 16.563-31.152 2.227-1.504 5.273-.918 6.777 1.309s.918 5.273-1.309 6.777c-7.676 5.195-12.266 13.809-12.266 23.066 0 15.332 12.48 27.813 27.813 27.813s27.813-12.48 27.813-27.813c0-9.277-4.609-17.93-12.324-23.105-2.246-1.504-2.832-4.531-1.328-6.777s4.531-2.832 6.777-1.328c10.43 7.012 16.641 18.672 16.641 31.211-.001 20.702-16.856 37.577-37.579 37.577z"/><path d="M77.438 137.578c0 11.65 9.444 21.094 21.094 21.094s21.094-9.443 21.094-21.094-9.443-21.094-21.094-21.094c-11.651 0-21.094 9.444-21.094 21.094z"/><path d="M106.969 125.918V96.934c0-5.02-3.691-8.906-8.242-8.906s-8.242 3.887-8.242 8.906v29.961"/></svg>