<?xml version="1.0" encoding="utf-8"?>
<!-- Generator: Adobe Illustrator 16.0.0, SVG Export Plug-In . SVG Version: 6.00 Build 0)  -->
<!DOCTYPE svg PUBLIC "-//W3C//DTD SVG 1.1//EN" "http://www.w3.org/Graphics/SVG/1.1/DTD/svg11.dtd">
<svg version="1.1" id="图层_1" xmlns="http://www.w3.org/2000/svg" xmlns:xlink="http://www.w3.org/1999/xlink" x="0px" y="0px"
	 width="149.25px" height="152px" viewBox="24 24 149.25 152" enable-background="new 24 24 149.25 152" xml:space="preserve">
<path d="M80.953,114.844c-2.695,0-4.883-2.188-4.883-4.883V48.848c0-12.93,10.078-23.457,22.461-23.457s22.461,10.527,22.461,23.457
	v59.16c0,2.695-2.188,4.883-4.883,4.883s-4.883-2.188-4.883-4.883v-59.16c0-7.559-5.703-13.691-12.695-13.691
	s-12.695,6.133-12.695,13.691v61.113C85.836,112.656,83.648,114.844,80.953,114.844z M126.949,47.148h14.824v9.043h-14.824V47.148z
	 M126.949,60.82h14.824v9.043h-14.824V60.82z M126.949,74.297h14.824v9.043h-14.824V74.297z"/>
<path d="M98.531,174.824c-20.723,0-37.578-16.855-37.578-37.578c0-12.5,6.191-24.16,16.563-31.152
	c2.227-1.504,5.273-0.918,6.777,1.309s0.918,5.273-1.309,6.777c-7.676,5.195-12.266,13.809-12.266,23.066
	c0,15.332,12.48,27.813,27.813,27.813s27.813-12.48,27.813-27.813c0-9.277-4.609-17.93-12.324-23.105
	c-2.246-1.504-2.832-4.531-1.328-6.777s4.531-2.832,6.777-1.328c10.43,7.012,16.641,18.672,16.641,31.211
	C136.109,157.949,119.254,174.824,98.531,174.824L98.531,174.824z"/>
<path d="M77.438,137.578c0,11.65,9.444,21.094,21.094,21.094c11.65,0,21.094-9.443,21.094-21.094s-9.443-21.094-21.094-21.094
	C86.881,116.484,77.438,125.928,77.438,137.578z"/>
<path d="M106.969,125.918V96.934c0-5.02-3.691-8.906-8.242-8.906s-8.242,3.887-8.242,8.906v29.961"/>
</svg>
