<svg t="1582871416127" class="icon" viewBox="0 0 1024 1024" version="1.1" xmlns="http://www.w3.org/2000/svg" p-id="1197" width="200" height="200"><path d="M941.896003 205.839601c-15.960618-15.921484-37.958905-25.802104-62.158498-25.802104l-165.399659 0.001997c-5.481203-46.760536-26.759697-88.680594-58.361869-120.279771C619.058723 22.841672 568.060498 0 511.736211 0c-56.319097 0-107.31852 22.838677-144.237569 59.759923-31.601173 31.600175-52.876673 73.518236-58.357875 120.277774L143.736714 180.037697l0 0 0 0.001997c-24.241722 0-46.237014 9.879622-62.160495 25.801106-15.960618 15.958621-25.835049 37.959903-25.835049 62.199629l-0.004992 667.960762c0 24.240724 9.88062 46.240009 25.84004 62.200627 15.919487 15.91749 37.923764 25.798111 62.160495 25.798111l735.997596 0c24.199593 0 46.199877-9.88062 62.160495-25.798909 15.920485-15.960618 25.84004-37.959903 25.84004-62.200627L967.734845 268.03923C967.735045 243.799504 957.818285 221.798223 941.896003 205.839601zM838.664824 503.603953 838.664824 503.603953c19.519446 5.758138 3.440627 44.357768-19.760242 39.881279C802.424635 540.322339 806.22426 493.961932 838.664824 503.603953zM805.545399 469.482608 805.545399 469.482608c24.798189 7.358453 4.36208 56.359429-25.118052 50.680558C759.503857 516.163877 764.3052 457.242547 805.545399 469.482608zM717.104403 512.083524c-27.242088-5.240606-17.757603-85.321231 35.878196-69.399747l0 0C785.262633 452.283668 755.465433 519.483307 717.104403 512.083524zM401.417126 93.677609c28.237817-28.199681 67.241768-45.67955 110.318086-45.67955 43.080311 0 82.082266 17.480867 110.324875 45.680548l0 0-0.003993 0c28.198683 28.239814 45.68554 67.239772 45.680548 110.319883 0 43.079313-17.481865 82.079071-45.680548 110.319883-28.240812 28.238815-67.239572 45.67955-110.320882 45.67955-43.080311 0-82.079071-17.440734-110.319883-45.680548-28.240812-28.239814-45.680548-67.239772-45.680548-110.319883C355.73558 160.919178 373.177312 121.918421 401.417126 93.677609zM282.584327 442.683777l-0.001997 0c53.639792-15.921484 63.122281 64.158143 35.878196 69.399747C280.100495 519.483307 250.305292 452.283668 282.584327 442.683777zM230.023724 469.482608l-0.001997 0c41.239201-12.240061 46.042541 46.681269 25.120049 50.680558C225.660446 525.840839 205.224537 476.84126 230.023724 469.482608zM196.904299 503.603953 196.904299 503.603953c32.43757-9.640024 36.238192 36.718586 19.757247 39.881279C193.461675 547.96172 177.381658 509.361891 196.904299 503.603953zM168.222227 601.925369c-17.278207 3.320229-29.277672-25.443106-14.7201-29.766053C177.700523 564.961195 180.501423 599.563732 168.222227 601.925369zM186.461022 570.243931c-20.239438 3.919024-34.237549-29.723125-17.194947-34.800205l-0.003993 0C197.54103 527.042223 200.822124 567.482165 186.461022 570.243931zM423.616076 896.643033c-2.320506 49.280507-56.240029 66.51978-89.119857 44.200432-36.443847-24.679787-49.079045-86.440353-70.678202-136.683645-13.602974-31.639309-33.721216-60.600113-48.721046-83.878053-24.362919-37.840703-34.11815-80.441619 3.52189-122.561142 28.877543-32.280234 62.198631-53.122261 98.639483-56.642154l-0.001997 0c44.157304-4.319152 68.281623 28.321077 64.402732 77.280723-3.242958 40.719672-21.599356 69.758745-15.562486 110.161549C374.094773 782.241798 427.057701 822.720675 423.616076 896.643033zM344.854239 370.878266c-37.398445-37.398445-62.275901-87.280743-67.918633-142.839715l32.202963 0 0 0.000998-0.003993 0.000998c5.480204 46.718407 26.760696 88.640461 58.361869 120.198507 36.918052 36.920048 87.919471 59.758925 144.237769 59.758925 56.320295 0 107.323511-22.838677 144.239766-59.758925 31.600175-31.560042 52.879668-73.4801 58.361869-120.200504l32.236906 0.000998c-5.639737 55.518041-30.558323 105.440271-67.960762 142.838717-42.721314 42.719317-101.719914 69.121015-166.880774 69.121015C446.576149 439.998283 387.578547 413.597583 344.854239 370.878266zM820.469955 720.283764c-14.998832 23.27794-35.11907 52.238943-48.722044 83.879251-21.598358 50.242293-34.236551 112.000663-70.678402 136.682447-32.880826 22.319348-86.797354 5.07728-89.118859-44.200432-3.443622-73.922358 49.522302-114.401434 57.519682-168.119296 6.037868-40.400807-12.317332-69.440878-15.563484-110.161549-3.87989-48.959646 20.24443-81.599875 64.405927-77.280723l-0.002995 0c36.439654 3.52189 69.757747 24.361921 98.638285 56.642154C854.589303 639.842145 844.833074 682.442062 820.469955 720.283764zM849.104906 570.243931c-14.361102-2.761766-11.077811-43.201708 17.200937-34.800205l-0.002995 0C883.344452 540.520806 869.345542 574.162955 849.104906 570.243931zM867.3447 601.925369c-12.280194-2.361637-9.478495-36.964174 14.721098-29.766053C896.62357 576.482263 884.625103 605.245598 867.3447 601.925369zM511.733016 252.039677c17.678336 0 32.0025-14.320969 32.0025-31.999305 0-5.841198-1.558385-11.361735-4.319152-16.041682l44.315638-76.799331c4.439351-7.639381 1.842109-17.4016-5.799269-21.79982-7.640379-4.440349-17.4016-1.841111-21.795827 5.800267l-44.359764 76.840462-0.042129 0-0.001997 0c-17.679334 0-31.997309 14.318973-31.999305 32.000303C479.733711 237.721703 494.05468 252.038679 511.733016 252.039677z" p-id="1198"></path></svg>