<svg class="icon" viewBox="0 0 1024 1024" xmlns="http://www.w3.org/2000/svg" width="200" height="200"><path d="M941.896 205.84c-15.96-15.922-37.959-25.803-62.158-25.803l-165.4.002c-5.481-46.76-26.76-88.68-58.362-120.28C619.059 22.843 568.06 0 511.736 0 455.417 0 404.418 22.839 367.5 59.76c-31.602 31.6-52.877 73.518-58.358 120.278H143.737v.002c-24.242 0-46.237 9.88-62.16 25.8-15.961 15.96-25.836 37.96-25.836 62.2l-.005 667.961c0 24.24 9.88 46.24 25.84 62.2C97.496 1014.12 119.5 1024 143.736 1024h735.998c24.2 0 46.2-9.88 62.16-25.799 15.921-15.96 25.84-37.96 25.84-62.2V268.038c.001-24.24-9.916-46.24-25.838-62.2zM838.665 503.604c19.52 5.758 3.44 44.358-19.76 39.881-16.48-3.163-12.68-49.523 19.76-39.881zm-33.12-34.121c24.799 7.358 4.362 56.359-25.118 50.68-20.923-4-16.122-62.92 25.118-50.68zm-88.44 42.6c-27.243-5.24-17.758-85.32 35.878-69.4 32.28 9.6 2.482 76.8-35.879 69.4zM401.416 93.679c28.238-28.2 67.242-45.68 110.318-45.68 43.08 0 82.082 17.48 110.325 45.68h-.004c28.199 28.24 45.686 67.24 45.68 110.32 0 43.08-17.481 82.08-45.68 110.32-28.24 28.24-67.24 45.68-110.32 45.68-43.081 0-82.08-17.44-110.32-45.68-28.241-28.24-45.681-67.24-45.681-110.32 0-43.079 17.442-82.08 45.682-110.32zM282.584 442.684h-.002c53.64-15.922 63.123 64.158 35.879 69.4-38.36 7.4-68.156-59.8-35.877-69.4zm-52.56 26.799h-.002c41.239-12.24 46.042 46.68 25.12 50.68-29.482 5.678-49.917-43.322-25.118-50.68zm-33.12 34.121c32.438-9.64 36.238 36.719 19.758 39.881-23.2 4.477-39.28-34.123-19.758-39.881zm-28.682 98.321c-17.278 3.32-29.277-25.443-14.72-29.766 24.199-7.198 27 27.405 14.72 29.766zm18.239-31.681c-20.24 3.919-34.238-29.723-17.195-34.8h-.004c28.279-8.402 31.56 32.038 17.199 34.8zm237.155 326.399c-2.32 49.28-56.24 66.52-89.12 44.2-36.444-24.68-49.079-86.44-70.678-136.683-13.603-31.64-33.721-60.6-48.721-83.878-24.363-37.84-34.118-80.442 3.522-122.561 28.877-32.28 62.198-53.123 98.64-56.643h-.003c44.158-4.319 68.282 28.322 64.403 77.281-3.243 40.72-21.6 69.759-15.562 110.162 7.998 53.72 60.96 94.2 57.52 168.122zm-78.762-525.765c-37.398-37.398-62.276-87.28-67.918-142.84h32.203v.002h-.004c5.48 46.719 26.76 88.641 58.361 120.2 36.918 36.92 87.92 59.758 144.238 59.758 56.32 0 107.324-22.839 144.24-59.759 31.6-31.56 52.88-73.48 58.362-120.2h32.237c-5.64 55.519-30.559 105.44-67.961 142.84-42.721 42.719-101.72 69.12-166.88 69.12-65.156 0-124.153-26.401-166.878-69.12zM820.47 720.284c-14.999 23.278-35.12 52.239-48.722 83.879-21.598 50.242-34.237 112-70.678 136.682-32.881 22.32-86.798 5.078-89.12-44.2-3.443-73.922 49.523-114.401 57.52-168.12 6.038-40.4-12.317-69.44-15.563-110.16-3.88-48.96 20.244-81.6 64.406-77.282h-.003c36.44 3.522 69.758 24.362 98.638 56.643 37.641 42.116 27.885 84.716 3.522 122.558zm28.635-150.04c-14.361-2.762-11.078-43.202 17.2-34.8h-.002c17.041 5.077 3.043 38.719-17.198 34.8zm18.24 31.681c-12.28-2.361-9.479-36.964 14.72-29.766 14.559 4.323 2.56 33.087-14.72 29.766zM511.733 252.04c17.678 0 32.003-14.321 32.003-32 0-5.84-1.559-11.361-4.32-16.041l44.316-76.8c4.44-7.639 1.842-17.401-5.8-21.8-7.64-4.44-17.4-1.84-21.795 5.8l-44.36 76.841H511.733c-17.68 0-31.997 14.32-32 32 0 17.682 14.322 31.999 32 32z"/></svg>