<svg t="1584424917732" class="icon" viewBox="0 0 1024 1024" version="1.1" xmlns="http://www.w3.org/2000/svg" p-id="5298" width="128" height="128"><path d="M512.005718 1024C229.686625 1024 0 794.324812 0 512.005718S229.686625 0 512.005718 0s511.994282 229.675188 511.994282 512.005718-229.686625 511.994282-511.994282 511.994282z m0-975.233194c-255.431016 0-463.193165 207.807896-463.193164 463.193165s207.807896 463.193165 463.193164 463.193165 463.193165-207.819333 463.193165-463.193165-207.785023-463.193165-463.193165-463.193165z" p-id="5299"></path><path d="M302.619534 312.032077c110.514458-89.287631 208.757156 38.702362 208.757157 38.702362 101.307779-117.571006 214.132485-29.026772 214.132484-29.026772 95.166181 84.083855 0.76627 190.298051 0.76627 190.298051-119.732574 155.324108-310.064936 231.608019-310.064935 231.60802-21.489875-181.560284-85.959502-151.790116-141.222449-258.942135s27.631474-172.639526 27.631473-172.639526z m130.975016 189.852013c21.123896 39.480069 45.747473 28.523549 53.982018 95.417792 0 0 72.749919-28.111822 118.520266-85.341911 0 0 36.094756-39.1484-0.285922-70.119439 0 0-43.12843-32.640822-81.865103 10.682035 0 0-37.558675-47.165645-79.79503-14.250338 0 0-31.691562 24.131792-10.556229 63.611861z" p-id="5300"></path></svg>