<svg class="icon" viewBox="0 0 1024 1024" xmlns="http://www.w3.org/2000/svg" width="64" height="64"><path d="M699.017 698.539c-26.078-25.225-77.108-67.516-125.338-67.55-16.111 0-30.993 4.642-43.247 13.482l-30.754 22.255c-48.162-10.24-97.553-52.224-132.676-113.083-35.192-60.86-46.865-124.587-31.71-171.418l34.645-15.565c44.169-19.865 58.505-76.936 40.516-160.836-14.506-67.516-63.76-195.14-146.739-195.14a76.73 76.73 0 0 0-23.688 3.754L181.35 33.417C131.072 49.732 93.218 91.92 82.534 143.599c-31.47 151.62 7.988 338.159 108.237 511.795 100.318 173.602 242.244 301.022 389.223 349.491 14.95 4.881 30.447 7.407 46.148 7.407 36.523 0 71.612-13.448 98.68-37.888l45.738-41.301c16.247-14.643 39.902-48.606 15.701-111.548-14.609-38.024-47.991-85.162-87.244-123.016zm38.195 197.598l-45.739 41.3c-17.92 16.18-41.199 25.089-65.331 25.089a96.64 96.64 0 0 1-30.515-4.915c-135.646-44.715-267.503-163.943-361.78-327.134-94.208-163.158-131.652-336.964-102.57-476.775 7.1-34.201 32.12-62.156 65.4-72.943l58.64-19.046c2.8-.853 5.564-1.297 8.397-1.297 38.707 0 81.988 80.555 98.133 155.853 11.845 55.125 6.964 96.324-12.22 105.028l-52.667 23.62-1.331 2.765c-29.252 61.508-18.432 149.982 28.262 230.844 46.729 80.93 117.93 134.485 185.856 139.878l3.072.24 46.763-33.827c3.755-2.73 8.328-4.062 14.097-4.062 46.25.034 139.4 88.952 166.127 158.584 7.134 18.432 12.459 43.28-2.594 56.798zm169.165-623.855C851.66 164.454 758.237 84.412 643.243 46.865a24.52 24.52 0 0 0-7.714-1.263c-10.787 0-20.276 6.895-23.62 17.17-4.233 13.004 2.9 27.067 15.94 31.334C730.18 127.522 813.363 198.793 862.003 294.74c48.777 95.983 57.174 205.176 23.757 307.508-4.267 13.038 2.901 27.101 15.974 31.334a23.993 23.993 0 0 0 7.68 1.263c10.787 0 20.344-6.895 23.689-17.17 37.512-114.926 27.99-237.567-26.726-345.394zM596.65 189.713c-2.492-.785-5.086-1.229-7.749-1.229-10.786 0-20.343 6.895-23.62 17.17-4.267 13.004 2.901 27.101 15.906 31.334 64.103 20.89 116.19 65.604 146.774 125.883 30.583 60.28 35.976 128.717 14.95 192.751-4.233 13.04 2.935 27.102 15.974 31.403a26.033 26.033 0 0 0 7.749 1.195c10.786 0 20.309-6.895 23.62-17.135 25.02-76.698 18.67-158.618-17.92-230.707-36.66-72.124-99.055-125.611-175.684-150.665zm-62.123 190.089c53.726 17.578 83.08 75.503 65.536 129.194-4.233 13.005 2.935 27.068 15.974 31.369 2.492.785 5.086 1.229 7.68 1.229 10.82 0 20.344-6.93 23.689-17.17 26.078-79.735-17.681-165.82-97.417-191.897a24.57 24.57 0 0 0-7.748-1.263c-10.786 0-20.275 6.895-23.654 17.135-4.233 13.107 2.901 27.17 15.94 31.403z"/></svg>