<svg class="icon" viewBox="0 0 1024 1024" xmlns="http://www.w3.org/2000/svg" width="64" height="64"><path d="M286.077 289.648c-26.568 0-48.182 21.6-48.182 48.152 0 26.568 21.614 48.183 48.182 48.183 26.57 0 48.184-21.615 48.184-48.183.001-26.552-21.615-48.152-48.184-48.152zm133.757 0c-26.568 0-48.183 21.6-48.183 48.152 0 26.568 21.615 48.183 48.183 48.183 26.551 0 48.152-21.615 48.152-48.183 0-26.552-21.6-48.152-48.152-48.152zm133.758 4.36c-26.57 0-48.185 21.616-48.185 48.185 0 26.55 21.616 48.15 48.185 48.15 26.55 0 48.15-21.6 48.15-48.15 0-26.57-21.6-48.185-48.15-48.185zm315.988 87.564h-95.783v-204.13c0-57.65-46.903-104.554-104.556-104.554H170.396c-57.633 0-104.522 46.902-104.522 104.554v336.573c0 57.043 45.9 103.564 102.697 104.54l-1.117 150.199L384.24 619.01v118.801c0 48.762 39.67 88.432 88.43 88.432h224.654L877.24 950.551l-.884-124.564c45.606-3.473 81.654-41.693 81.654-88.175v-267.81c0-48.761-39.669-88.43-88.43-88.43zM368.914 567.336L219.398 670.593l.767-103.257h-49.768c-29.384 0-53.29-23.92-53.29-53.321V177.442c0-29.402 23.905-53.323 53.29-53.323h498.845c29.401 0 53.322 23.92 53.322 53.323v336.573c0 29.402-23.92 53.321-53.322 53.321H368.914zm537.864 170.476c0 20.511-16.687 37.198-37.198 37.198h-44.844l.566 77.383-112.014-77.383H472.67c-20.511 0-37.2-16.687-37.2-37.198v-119.24h233.77c57.653 0 104.556-46.905 104.556-104.557v-81.21h95.784c20.51 0 37.198 16.686 37.198 37.196v267.811z"/></svg>