<?xml version="1.0" encoding="utf-8"?>
<!-- Generator: Adobe Illustrator 16.0.0, SVG Export Plug-In . SVG Version: 6.00 Build 0)  -->
<!DOCTYPE svg PUBLIC "-//W3C//DTD SVG 1.1//EN" "http://www.w3.org/Graphics/SVG/1.1/DTD/svg11.dtd">
<svg version="1.1" id="图层_1" xmlns="http://www.w3.org/2000/svg" xmlns:xlink="http://www.w3.org/1999/xlink" x="0px" y="0px"
	 width="94.129px" height="128px" viewBox="17.042 0 94.129 128" enable-background="new 17.042 0 94.129 128" xml:space="preserve"
	>
<path d="M78.512,6.545c1.358,4.621,3.233,9.413,5.507,14.048c1.584,3.26,3.36,6.422,5.321,9.47L67.283,19.276l-2.746-1.345
	l-2.748,1.316L38.958,30.22c2.003-3.103,3.818-6.323,5.437-9.643c2.223-4.521,4.065-9.22,5.508-14.047h28.61 M82.145,0.251H46.211
	c-0.464,0.001-0.915,0.152-1.287,0.429c-1.215,5.335-3.276,11.202-6.18,17.138c-3.819,7.797-8.426,14.406-13.018,19.069
	l-1.831,3.491c-0.745,1.431,0.286,3.148,1.903,3.148l38.71-18.597l38.037,18.597c1.617,0,2.661-1.717,1.903-3.148l-1.888-3.619
	c-4.55-4.664-9.112-11.215-12.904-18.954c-2.903-5.923-4.964-11.773-6.179-17.095C83.095,0.416,82.628,0.254,82.145,0.251z
	 M94.549,91.406c-3.877,4.719-7.481,10.386-10.544,16.65c-2.223,4.521-4.065,9.221-5.507,14.048h-28.61
	c-1.359-4.62-3.233-9.414-5.508-14.048c-3.06-6.265-6.652-11.932-10.529-16.65H94.549 M102.545,85.109H25.797
	c-1.616,0-2.662,1.717-1.903,3.148l1.831,3.49c4.592,4.665,9.199,11.273,13.018,19.069c2.904,5.937,4.978,11.815,6.18,17.138
	c0.372,0.272,0.816,0.43,1.287,0.43h35.921c0.501,0,0.973-0.172,1.345-0.472c1.217-5.322,3.276-11.173,6.179-17.096
	c3.793-7.724,8.356-14.291,12.905-18.953l1.888-3.62C105.206,86.826,104.162,85.109,102.545,85.109z"/>
<path d="M64.106,17.374c-25.993,0-47.065,21.072-47.065,47.064s21.072,47.064,47.065,47.064c25.993,0,47.064-21.072,47.064-47.064
	S90.1,17.374,64.106,17.374z M83.763,70.276h-0.029l-22.459-0.244h-0.157c-0.029,0-0.072,0-0.1-0.014h-0.058
	c-0.029,0-0.057-0.014-0.085-0.014c-0.029,0-0.044,0-0.073-0.016c-0.029,0-0.058-0.015-0.085-0.015s-0.057-0.015-0.071-0.015
	c-0.029,0-0.057-0.014-0.071-0.014c-0.029,0-0.058-0.017-0.072-0.017c-0.029,0-0.042-0.014-0.071-0.014
	c-0.029-0.015-0.058-0.015-0.086-0.028c-0.021-0.004-0.041-0.014-0.057-0.028c-0.028-0.014-0.058-0.014-0.085-0.027
	c-0.015-0.015-0.043-0.015-0.058-0.028c-0.026-0.017-0.055-0.026-0.085-0.028c-0.015-0.017-0.044-0.017-0.058-0.029l-0.086-0.043
	c-0.014-0.015-0.027-0.015-0.058-0.027l-0.085-0.044c-0.015-0.016-0.029-0.016-0.057-0.028l-0.086-0.042
	c-0.014-0.016-0.029-0.016-0.043-0.027c-0.028-0.017-0.057-0.03-0.085-0.059c-0.015-0.016-0.029-0.029-0.044-0.029
	c-0.026-0.015-0.05-0.034-0.071-0.057l-0.043-0.045c-0.029-0.013-0.044-0.042-0.071-0.056l-0.042-0.043
	c-0.029-0.014-0.043-0.042-0.072-0.058l-0.2-0.2c-0.015-0.015-0.029-0.027-0.042-0.057c-0.014-0.015-0.029-0.043-0.058-0.057
	c-0.014-0.017-0.028-0.045-0.042-0.059c-0.015-0.015-0.029-0.042-0.043-0.057c-0.013-0.016-0.027-0.044-0.042-0.059
	c-0.015-0.028-0.029-0.044-0.043-0.071c-0.018-0.021-0.032-0.045-0.042-0.071c-0.014-0.014-0.029-0.042-0.043-0.058
	c-0.014-0.027-0.027-0.043-0.042-0.069c-0.015-0.018-0.025-0.037-0.029-0.058c-0.011-0.026-0.024-0.051-0.042-0.072
	c-0.014-0.015-0.014-0.043-0.029-0.058l-0.043-0.086c-0.014-0.014-0.014-0.042-0.029-0.056c-0.016-0.027-0.026-0.057-0.029-0.088
	c0-0.015-0.014-0.042-0.014-0.057c-0.016-0.028-0.016-0.059-0.029-0.101c0-0.015-0.014-0.028-0.014-0.057
	c-0.015-0.029-0.015-0.072-0.029-0.102c0-0.015-0.015-0.028-0.015-0.042c-0.014-0.029-0.014-0.072-0.029-0.115
	c0-0.015,0-0.027-0.014-0.045c0-0.042-0.015-0.069-0.015-0.111c0-0.016,0-0.028-0.014-0.043c0-0.045-0.014-0.071-0.014-0.115v-0.042
	c0-0.044,0-0.087-0.015-0.114V66.87l0.243-26.449c0.013-1.729,1.419-3.122,3.147-3.119h0.029c1.737,0.016,3.134,1.438,3.118,3.175
	c0,0,0,0,0,0l-0.213,23.317l19.312,0.215c1.736,0.021,3.129,1.44,3.118,3.176C86.896,68.887,85.493,70.276,83.763,70.276z"/>
</svg>
