<?xml version="1.0" encoding="utf-8"?>
<!-- Generator: Adobe Illustrator 16.0.0, SVG Export Plug-In . SVG Version: 6.00 Build 0)  -->
<!DOCTYPE svg PUBLIC "-//W3C//DTD SVG 1.1//EN" "http://www.w3.org/Graphics/SVG/1.1/DTD/svg11.dtd">
<svg version="1.1" id="图层_1" xmlns="http://www.w3.org/2000/svg" xmlns:xlink="http://www.w3.org/1999/xlink" x="0px" y="0px"
	 width="128px" height="128px" viewBox="0.167 0.167 127.667 127.667" enable-background="new 0.167 0.167 127.667 127.667"
	 xml:space="preserve">
<g>
	<path d="M77.897,8.177c1.316,4.477,3.132,9.12,5.335,13.611c1.58,3.243,3.313,6.319,5.156,9.175L67.018,20.512l-2.661-1.303
		l-2.662,1.275l-22.12,10.631c1.885-2.911,3.646-6.029,5.267-9.342c2.204-4.49,4.005-9.12,5.336-13.61h27.72 M81.417,2.079H46.602
		c-0.458,0-0.887,0.152-1.247,0.416c-1.178,5.169-3.174,10.853-5.988,16.604c-3.7,7.554-8.164,13.958-12.612,18.475l-1.774,3.382
		c-0.721,1.386,0.277,3.05,1.844,3.05l37.505-18.018l36.853,18.018c1.566,0,2.578-1.664,1.844-3.05l-1.83-3.506
		c-4.407-4.519-8.828-10.866-12.502-18.364c-2.813-5.738-4.809-11.407-5.987-16.563C82.346,2.246,81.889,2.079,81.417,2.079
		L81.417,2.079z M93.434,90.395c-3.756,4.573-7.248,10.063-10.215,16.133c-2.203,4.49-4.005,9.119-5.336,13.61H50.164
		c-1.317-4.477-3.132-9.12-5.336-13.61c-2.965-6.07-6.445-11.56-10.201-16.133H93.434 M101.182,84.295H26.824
		c-1.566,0-2.579,1.664-1.844,3.051l1.774,3.381c4.449,4.52,8.912,10.922,12.612,18.476c2.814,5.752,4.823,11.448,5.988,16.604
		c0.36,0.264,0.79,0.416,1.247,0.416h34.803c0.484,0,0.941-0.166,1.303-0.457c1.178-5.156,3.174-10.825,5.986-16.563
		c3.674-7.483,8.096-13.847,12.502-18.364l1.83-3.507C103.76,85.959,102.748,84.295,101.182,84.295L101.182,84.295z"/>
	<path d="M63.94,18.669c-25.183,0-45.599,20.416-45.599,45.599c0,25.183,20.416,45.599,45.599,45.599s45.599-20.416,45.599-45.599
		C109.539,39.085,89.123,18.669,63.94,18.669L63.94,18.669z M82.984,69.924h-0.028l-21.76-0.236h-0.152c-0.028,0-0.07,0-0.097-0.014
		h-0.056c-0.028,0-0.055-0.014-0.083-0.014s-0.042,0-0.07-0.014c-0.028,0-0.056-0.014-0.083-0.014c-0.027,0-0.055-0.015-0.069-0.015
		c-0.028,0-0.055-0.013-0.069-0.013c-0.028,0-0.056-0.015-0.07-0.015c-0.028,0-0.041-0.014-0.069-0.014
		c-0.028-0.015-0.056-0.015-0.083-0.028c-0.014,0-0.041-0.014-0.055-0.027c-0.028-0.014-0.056-0.014-0.083-0.027
		c-0.014-0.014-0.042-0.014-0.056-0.027c-0.027-0.015-0.055-0.028-0.083-0.028c-0.014-0.015-0.042-0.015-0.056-0.028l-0.083-0.041
		c-0.014-0.014-0.027-0.014-0.056-0.027l-0.083-0.043c-0.014-0.014-0.028-0.014-0.055-0.027l-0.083-0.041
		c-0.014-0.014-0.028-0.014-0.042-0.027c-0.027-0.015-0.055-0.028-0.083-0.056c-0.014-0.015-0.028-0.028-0.042-0.028
		c-0.028-0.014-0.056-0.041-0.069-0.055l-0.042-0.043c-0.028-0.013-0.042-0.041-0.069-0.055l-0.041-0.041
		c-0.028-0.014-0.042-0.041-0.07-0.056l-0.194-0.194c-0.014-0.014-0.028-0.027-0.041-0.055c-0.014-0.014-0.028-0.042-0.056-0.055
		c-0.014-0.016-0.028-0.043-0.041-0.057c-0.014-0.014-0.028-0.041-0.042-0.055c-0.013-0.015-0.027-0.042-0.041-0.056
		c-0.014-0.028-0.028-0.042-0.042-0.069c-0.014-0.014-0.028-0.041-0.041-0.069c-0.014-0.014-0.028-0.041-0.042-0.056
		c-0.013-0.027-0.027-0.041-0.041-0.068c-0.014-0.015-0.028-0.043-0.028-0.056c-0.013-0.028-0.028-0.056-0.041-0.069
		c-0.014-0.014-0.014-0.041-0.028-0.056l-0.042-0.083c-0.014-0.014-0.014-0.041-0.028-0.055c-0.014-0.028-0.028-0.057-0.028-0.084
		c0-0.014-0.013-0.041-0.013-0.055c-0.015-0.028-0.015-0.057-0.028-0.098c0-0.014-0.014-0.027-0.014-0.055
		c-0.014-0.028-0.014-0.07-0.028-0.098c0-0.014-0.014-0.027-0.014-0.041c-0.014-0.028-0.014-0.07-0.028-0.111
		c0-0.015,0-0.027-0.014-0.043c0-0.041-0.014-0.068-0.014-0.109c0-0.015,0-0.027-0.014-0.042c0-0.042-0.013-0.069-0.013-0.111
		v-0.041c0-0.042,0-0.083-0.014-0.111v-0.194l0.235-25.626c0.014-1.677,1.372-3.022,3.049-3.022h0.028
		c1.691,0.014,3.035,1.4,3.021,3.077l-0.207,22.591l18.711,0.208c1.677,0.014,3.035,1.4,3.021,3.077
		C86.02,68.578,84.66,69.924,82.984,69.924L82.984,69.924z"/>
</g>
</svg>
