<svg xmlns="http://www.w3.org/2000/svg" width="128" height="128" viewBox="0.167 0.167 127.667 127.667"><path d="M77.897 8.177c1.316 4.477 3.132 9.12 5.335 13.611a88.205 88.205 0 0 0 5.156 9.175l-21.37-10.451-2.661-1.303-2.662 1.275-22.12 10.631a89.76 89.76 0 0 0 5.267-9.342 87.774 87.774 0 0 0 5.336-13.61h27.72m3.519-6.084H46.602a2.1 2.1 0 0 0-1.247.416c-1.178 5.169-3.174 10.853-5.988 16.604-3.7 7.554-8.164 13.958-12.612 18.475l-1.774 3.382c-.721 1.386.277 3.05 1.844 3.05L64.33 25.988l36.853 18.018c1.566 0 2.578-1.664 1.844-3.05l-1.83-3.506c-4.407-4.519-8.828-10.866-12.502-18.364-2.813-5.738-4.809-11.407-5.987-16.563a2.143 2.143 0 0 0-1.291-.444zm12.017 88.316c-3.756 4.573-7.248 10.063-10.215 16.133a87.835 87.835 0 0 0-5.336 13.61H50.164c-1.317-4.477-3.132-9.12-5.336-13.61-2.965-6.07-6.445-11.56-10.201-16.133h58.807m7.748-6.1H26.824c-1.566 0-2.579 1.664-1.844 3.051l1.774 3.381c4.449 4.52 8.912 10.922 12.612 18.476 2.814 5.752 4.823 11.448 5.988 16.604.36.264.79.416 1.247.416h34.803c.484 0 .941-.166 1.303-.457 1.178-5.156 3.174-10.825 5.986-16.563 3.674-7.483 8.096-13.847 12.502-18.364l1.83-3.507c.735-1.373-.277-3.037-1.843-3.037z"/><path d="M63.94 18.669c-25.183 0-45.599 20.416-45.599 45.599 0 25.183 20.416 45.599 45.599 45.599s45.599-20.416 45.599-45.599c0-25.183-20.416-45.599-45.599-45.599zm19.044 51.255h-.028l-21.76-.236h-.152c-.028 0-.07 0-.097-.014h-.056c-.028 0-.055-.014-.083-.014s-.042 0-.07-.014c-.028 0-.056-.014-.083-.014-.027 0-.055-.015-.069-.015-.028 0-.055-.013-.069-.013-.028 0-.056-.015-.07-.015-.028 0-.041-.014-.069-.014-.028-.015-.056-.015-.083-.028a.109.109 0 0 1-.055-.027c-.028-.014-.056-.014-.083-.027-.014-.014-.042-.014-.056-.027a.179.179 0 0 0-.083-.028c-.014-.015-.042-.015-.056-.028l-.083-.041c-.014-.014-.027-.014-.056-.027l-.083-.043c-.014-.014-.028-.014-.055-.027l-.083-.041c-.014-.014-.028-.014-.042-.027-.027-.015-.055-.028-.083-.056-.014-.015-.028-.028-.042-.028a.277.277 0 0 1-.069-.055l-.042-.043c-.028-.013-.042-.041-.069-.055l-.041-.041c-.028-.014-.042-.041-.07-.056l-.194-.194c-.014-.014-.028-.027-.041-.055-.014-.014-.028-.042-.056-.055-.014-.016-.028-.043-.041-.057-.014-.014-.028-.041-.042-.055-.013-.015-.027-.042-.041-.056-.014-.028-.028-.042-.042-.069a.266.266 0 0 1-.041-.069c-.014-.014-.028-.041-.042-.056-.013-.027-.027-.041-.041-.068a.114.114 0 0 1-.028-.056.278.278 0 0 0-.041-.069c-.014-.014-.014-.041-.028-.056l-.042-.083c-.014-.014-.014-.041-.028-.055a.204.204 0 0 1-.028-.084c0-.014-.013-.041-.013-.055-.015-.028-.015-.057-.028-.098 0-.014-.014-.027-.014-.055-.014-.028-.014-.07-.028-.098 0-.014-.014-.027-.014-.041-.014-.028-.014-.07-.028-.111 0-.015 0-.027-.014-.043 0-.041-.014-.068-.014-.109 0-.015 0-.027-.014-.042 0-.042-.013-.069-.013-.111v-.041c0-.042 0-.083-.014-.111v-.194l.235-25.626a3.044 3.044 0 0 1 3.049-3.022h.028a3.049 3.049 0 0 1 3.021 3.077L64.3 63.644l18.711.208a3.058 3.058 0 0 1 3.021 3.077c-.012 1.649-1.372 2.995-3.048 2.995z"/></svg>