<svg t="1571734577075" class="icon" viewBox="0 0 1024 1024" version="1.1" xmlns="http://www.w3.org/2000/svg" p-id="17031" width="200" height="200"><path d="M791.7568 368.64h-527.36a77.2096 77.2096 0 0 1-77.1072-77.1072v-3.4304A77.2096 77.2096 0 0 1 264.448 210.944h67.4816a80.4864 80.4864 0 0 0 146.6368 0h313.1904a33.28 33.28 0 0 0 0-66.56H478.5664a80.4864 80.4864 0 0 0-146.6368 0H264.448a143.872 143.872 0 0 0-143.7184 143.7184v3.4304A143.872 143.872 0 0 0 264.448 435.2h527.36a77.2096 77.2096 0 0 1 77.1584 77.1584v3.4304a77.2096 77.2096 0 0 1-77.1584 77.1584h-34.56a80.4864 80.4864 0 0 0-146.6368 0H264.448a143.872 143.872 0 0 0-143.7184 143.7184v3.4304a143.872 143.872 0 0 0 143.7184 143.7184h67.4816a80.4864 80.4864 0 0 0 146.6368 0h313.1904a33.28 33.28 0 0 0 0-66.56H478.5664a80.4864 80.4864 0 0 0-146.6368 0H264.448a77.2096 77.2096 0 0 1-77.1584-77.1584v-3.4304a77.2096 77.2096 0 0 1 77.1584-77.1584h346.2144a80.4864 80.4864 0 0 0 146.6368 0h34.5088a143.872 143.872 0 0 0 143.7184-143.7184v-3.4304A143.872 143.872 0 0 0 791.7568 368.64z" p-id="17032"></path></svg>