<svg class="icon" viewBox="0 0 1024 1024" xmlns="http://www.w3.org/2000/svg" width="200" height="200"><path d="M791.757 368.64h-527.36a77.21 77.21 0 0 1-77.107-77.107v-3.43a77.21 77.21 0 0 1 77.158-77.159h67.482a80.486 80.486 0 0 0 146.636 0h313.19a33.28 33.28 0 0 0 0-66.56h-313.19a80.486 80.486 0 0 0-146.636 0h-67.482A143.872 143.872 0 0 0 120.73 288.102v3.43A143.872 143.872 0 0 0 264.448 435.2h527.36a77.21 77.21 0 0 1 77.158 77.158v3.43a77.21 77.21 0 0 1-77.158 77.16h-34.56a80.486 80.486 0 0 0-146.637 0H264.448A143.872 143.872 0 0 0 120.73 736.665v3.43a143.872 143.872 0 0 0 143.718 143.718h67.482a80.486 80.486 0 0 0 146.636 0h313.19a33.28 33.28 0 0 0 0-66.56h-313.19a80.486 80.486 0 0 0-146.636 0h-67.482a77.21 77.21 0 0 1-77.158-77.158v-3.43a77.21 77.21 0 0 1 77.158-77.159h346.214a80.486 80.486 0 0 0 146.637 0h34.509A143.872 143.872 0 0 0 935.526 515.79v-3.43a143.872 143.872 0 0 0-143.77-143.719z"/></svg>