<?xml version="1.0" encoding="utf-8"?>
<!-- Generator: Adobe Illustrator 16.0.0, SVG Export Plug-In . SVG Version: 6.00 Build 0)  -->
<!DOCTYPE svg PUBLIC "-//W3C//DTD SVG 1.1//EN" "http://www.w3.org/Graphics/SVG/1.1/DTD/svg11.dtd">
<svg version="1.1" id="图层_1" xmlns="http://www.w3.org/2000/svg" xmlns:xlink="http://www.w3.org/1999/xlink" x="0px" y="0px"
	 width="176.667px" height="170.334px" viewBox="11.5 11.5 176.667 170.334" enable-background="new 11.5 11.5 176.667 170.334"
	 xml:space="preserve">
<path d="M157.785,115.834c2.459-3.607,4.855-7.162,7.092-10.557h22.564v10.557H157.785L157.785,115.834z M156.855,105.277
	L156.855,105.277h-26.768l-17.889-55.054l-17.888,55.054h-1.172L80.53,66.467l-12.61,38.811H41.152l0,0
	c-2.548-3.873-4.907-7.545-6.972-10.85c-5.665-7.187-9.072-16.236-9.072-26.099c0-23.321,18.905-42.225,42.226-42.225
	c12.629,0,23.932,5.574,31.67,14.361c7.738-8.787,19.041-14.361,31.67-14.361c23.322,0,42.227,18.904,42.227,42.225
	c0,9.862-3.408,18.913-9.072,26.099C161.762,97.732,159.404,101.402,156.855,105.277L156.855,105.277z M40.223,115.834H12.559
	v-10.557H33.13C35.367,108.672,37.763,112.227,40.223,115.834L40.223,115.834z M75.589,115.834l4.94-15.205l13.196,40.615
	l18.474-56.859l10.219,31.449h27.35l0,0c-18.365,26.865-50.764,58.063-50.764,58.063s-32.399-31.197-50.763-58.063H75.589
	L75.589,115.834L75.589,115.834z"/>
</svg>
