<svg xmlns="http://www.w3.org/2000/svg" width="176.667" height="170.334" viewBox="11.5 11.5 176.667 170.334"><path d="M157.785 115.834a815.917 815.917 0 0 0 7.092-10.557h22.564v10.557h-29.656zm-.93-10.557h-26.768l-17.889-55.054-17.888 55.054h-1.172L80.53 66.467l-12.61 38.811H41.152a557.426 557.426 0 0 1-6.972-10.85c-5.665-7.187-9.072-16.236-9.072-26.099 0-23.321 18.905-42.225 42.226-42.225 12.629 0 23.932 5.574 31.67 14.361 7.738-8.787 19.041-14.361 31.67-14.361 23.322 0 42.227 18.904 42.227 42.225 0 9.862-3.408 18.913-9.072 26.099a572.377 572.377 0 0 1-6.974 10.849zM40.223 115.834H12.559v-10.557H33.13a806.098 806.098 0 0 0 7.093 10.557zm35.366 0l4.94-15.205 13.196 40.615 18.474-56.859 10.219 31.449h27.35c-18.365 26.865-50.764 58.063-50.764 58.063S66.605 142.7 48.241 115.834h27.348z"/></svg>