<svg class="icon" viewBox="0 0 1024 1024" xmlns="http://www.w3.org/2000/svg" width="200" height="200"><path d="M862.848 570.475H336.576c-32.293 0-58.475-26.183-58.475-58.475s26.182-58.475 58.475-58.475h526.272c32.292 0 58.474 26.183 58.474 58.475s-26.182 58.475-58.474 58.475zM862.848 862.848H336.576c-32.293 0-58.475-26.183-58.475-58.475 0-32.293 26.182-58.475 58.475-58.475h526.272c32.292 0 58.474 26.182 58.474 58.475 0 32.292-26.182 58.475-58.474 58.475zM862.848 278.1H336.576c-32.293 0-58.475-26.181-58.475-58.474s26.182-58.475 58.475-58.475h526.272c32.292 0 58.474 26.183 58.474 58.475s-26.182 58.475-58.474 58.475zM102.678 219.627a57.143 57.143 0 1 0 116.95 0 57.143 57.143 0 1 0-116.95 0zM102.678 512a57.143 57.143 0 1 0 116.95 0 57.143 57.143 0 1 0-116.95 0zM102.678 804.373a57.143 57.143 0 1 0 116.95 0 57.143 57.143 0 1 0-116.95 0z"/></svg>