<svg class="icon" viewBox="0 0 1024 1024" xmlns="http://www.w3.org/2000/svg" width="200" height="200"><path d="M862.848 570.475H336.576c-32.293 0-58.475-26.183-58.475-58.475s26.182-58.475 58.475-58.475h526.272c32.292 0 58.474 26.183 58.474 58.475s-26.182 58.475-58.474 58.475zm0 292.373H336.576c-32.293 0-58.475-26.183-58.475-58.475 0-32.293 26.182-58.475 58.475-58.475h526.272c32.292 0 58.474 26.182 58.474 58.475 0 32.292-26.182 58.475-58.474 58.475zm0-584.748H336.576c-32.293 0-58.475-26.181-58.475-58.474s26.182-58.475 58.475-58.475h526.272c32.292 0 58.474 26.183 58.474 58.475s-26.182 58.475-58.474 58.475zm-760.17-58.473a57.143 57.143 0 1 0 116.95 0 57.143 57.143 0 1 0-116.95 0zm0 292.373a57.143 57.143 0 1 0 116.95 0 57.143 57.143 0 1 0-116.95 0zm0 292.373a57.143 57.143 0 1 0 116.95 0 57.143 57.143 0 1 0-116.95 0z"/></svg>