<?xml version="1.0" encoding="utf-8"?>
<!-- Generator: Adobe Illustrator 16.0.0, SVG Export Plug-In . SVG Version: 6.00 Build 0)  -->
<!DOCTYPE svg PUBLIC "-//W3C//DTD SVG 1.1//EN" "http://www.w3.org/Graphics/SVG/1.1/DTD/svg11.dtd">
<svg version="1.1" id="图层_1" xmlns="http://www.w3.org/2000/svg" xmlns:xlink="http://www.w3.org/1999/xlink" x="0px" y="0px"
	 width="134.75px" height="134.75px" viewBox="-3 -3 134.75 134.75" enable-background="new -3 -3 134.75 134.75"
	 xml:space="preserve">
<path d="M110.845,101.361l-93.47,0.025V44.442l44.231,28.147c1.534,0.974,3.493,0.974,5.02,0l44.231-28.147L110.845,101.361z
	 M17.375,26.544l0.013,0.032l93.47-0.032v6.814L64.113,63.1L17.375,33.358V26.544z M110.845,17.229H17.387
	c-5.155-0.006-9.343,4.16-9.363,9.315v74.843c0,5.143,4.201,9.318,9.363,9.318h93.457c5.156,0.014,9.344-4.162,9.357-9.318V26.544
	C120.182,21.392,116,17.223,110.845,17.229z"/>
</svg>
