<?xml version="1.0" encoding="utf-8"?>
<!-- Generator: Adobe Illustrator 16.0.0, SVG Export Plug-In . SVG Version: 6.00 Build 0)  -->
<!DOCTYPE svg PUBLIC "-//W3C//DTD SVG 1.1//EN" "http://www.w3.org/Graphics/SVG/1.1/DTD/svg11.dtd">
<svg version="1.1" id="图层_1" xmlns="http://www.w3.org/2000/svg" xmlns:xlink="http://www.w3.org/1999/xlink" x="0px" y="0px"
	 width="112.177px" height="132.667px" viewBox="12.024 1.875 112.177 132.667"
	 enable-background="new 12.024 1.875 112.177 132.667" xml:space="preserve">
<path d="M114.846,106.361l-93.471,0.024V49.442l44.231,28.147c1.532,0.974,3.488,0.974,5.02,0l44.231-28.147L114.846,106.361z
	 M21.375,31.544l0.013,0.032l93.469-0.032v5.814L68.113,67.1L21.375,37.358V31.544z M114.846,22.229H21.387
	c-5.155-0.006-9.343,4.16-9.363,9.315v74.843c0,5.144,4.201,9.318,9.363,9.318h93.457c5.156,0.014,9.344-4.162,9.357-9.318V31.544
	C124.182,26.392,120,22.223,114.846,22.229z"/>
</svg>
