<svg xmlns="http://www.w3.org/2000/svg" width="143.712" height="139.055" viewBox="-7.878 -7.833 143.712 139.055"><path d="M63.886 122.445a3.628 3.628 0 0 1-2.528-1.032l-49.603-49.63c-15.065-15.115-15.065-39.569 0-54.685a37.583 37.583 0 0 1 15.422-9.399 39.9 39.9 0 0 1 17.395-1.47 3.56 3.56 0 0 1-.861 7.07h-.171c-17.214-2.438-33.146 9.54-35.583 26.754a31.475 31.475 0 0 0 8.908 26.674l47.14 47.127 47.127-47.127c12.361-12.251 12.449-32.204.197-44.565C99.078 9.8 79.125 9.712 66.765 21.964l-.204.204-27.8 27.667a3.577 3.577 0 0 1-5.057-5.057l27.654-27.667c14.902-15.307 39.39-15.635 54.697-.734 15.307 14.902 15.635 39.39.733 54.697-.103.105-.204.209-.308.313l-.186.186-.252.252-49.721 49.589a3.332 3.332 0 0 1-2.489 1.032h.054z"/><path d="M63.913 122.936h-.093a4.107 4.107 0 0 1-2.78-1.178L11.411 72.141c-15.219-15.326-15.219-40.061 0-55.387a38.228 38.228 0 0 1 15.621-9.518 40.597 40.597 0 0 1 17.606-1.549 4.063 4.063 0 0 1 2.012 7.228 3.972 3.972 0 0 1-2.992.834h-.198C26.524 11.331 10.834 23.1 8.416 40.036l-.01.069a31.136 31.136 0 0 0 8.79 26.291l46.809 46.756 46.756-46.783c11.809-12.408 11.323-32.041-1.086-43.85-11.979-11.4-30.795-11.397-42.771.006L39.105 50.193a4.078 4.078 0 0 1-5.759-5.758l27.667-27.667c15.707-14.876 40.5-14.203 55.375 1.504 14.15 14.939 14.328 38.279.41 53.434l-.438.436-49.709 49.617a3.827 3.827 0 0 1-2.738 1.177zm0-.994a2.834 2.834 0 0 0 2.052-.887l50.119-50.053c14.758-15.042 14.557-39.191-.451-53.984-15.029-14.784-39.196-14.588-53.984.438L33.982 45.123a3.083 3.083 0 0 0 4.355 4.355l27.8-27.667c12.502-12.517 32.783-12.529 45.301-.027 12.516 12.502 12.527 32.784.025 45.3l-47.458 47.472-47.497-47.472c-12.496-12.473-12.514-32.715-.04-45.211a31.968 31.968 0 0 1 27.138-9.063h.159a3.072 3.072 0 0 0 .741-6.09 39.695 39.695 0 0 0-17.209 1.457 37.208 37.208 0 0 0-15.21 9.267c-14.832 14.938-14.832 39.045 0 53.983l49.655 49.63a3.108 3.108 0 0 0 2.145.887h.026z"/><path d="M107.545 57.99a3.308 3.308 0 0 1-2.926-4.818c6.461-12.47-1.099-17.54-1.43-17.739a3.317 3.317 0 1 1 3.177-5.824l.277.159.186.119c4.461 2.899 11.014 12.126 3.707 26.304a3.31 3.31 0 0 1-2.991 1.799zM74.887 93.217a3.31 3.31 0 0 1-2.33-5.641l25.47-25.456a3.309 3.309 0 1 1 5.017 4.302l-.185.199-.173.172L77.243 92.25a3.297 3.297 0 0 1-2.356.967z"/><path d="M74.887 93.878a3.971 3.971 0 0 1-2.793-6.778l25.457-25.456a3.97 3.97 0 0 1 5.996 5.202l-.225.252-25.629 25.629a3.968 3.968 0 0 1-2.806 1.151zm0-1.323a2.655 2.655 0 0 0 1.867-.821l25.642-25.575.159-.172a2.649 2.649 0 0 0-3.972-3.442l-25.55 25.509a2.648 2.648 0 0 0 1.854 4.515v-.014zm32.672-33.916a3.971 3.971 0 0 1-3.522-5.785c6.262-12.113-1.112-16.825-1.191-16.878a3.97 3.97 0 0 1 3.799-6.962l.331.199.173.106c4.646 3.018 11.45 12.589 3.971 27.164a3.977 3.977 0 0 1-3.561 2.156zm-2.793-28.766a2.647 2.647 0 0 0-1.324 4.964c.119.066 8.538 5.441 1.707 18.625a2.649 2.649 0 0 0 4.447 2.874c.096-.147.176-.302.239-.465 7.122-13.715.874-22.637-3.468-25.43l-.172-.119-.226-.132a2.634 2.634 0 0 0-1.203-.317z"/></svg>