<?xml version="1.0" encoding="utf-8"?>
<!-- Generator: Adobe Illustrator 16.0.0, SVG Export Plug-In . SVG Version: 6.00 Build 0)  -->
<!DOCTYPE svg PUBLIC "-//W3C//DTD SVG 1.1//EN" "http://www.w3.org/Graphics/SVG/1.1/DTD/svg11.dtd">
<svg version="1.1" id="图层_1" xmlns="http://www.w3.org/2000/svg" xmlns:xlink="http://www.w3.org/1999/xlink" x="0px" y="0px"
	 width="143.712px" height="139.055px" viewBox="-7.878 -7.833 143.712 139.055"
	 enable-background="new -7.878 -7.833 143.712 139.055" xml:space="preserve">
<path d="M63.886,122.445c-0.945-0.002-1.853-0.372-2.528-1.032l-49.603-49.63c-15.065-15.115-15.065-39.569,0-54.685
	c4.3-4.34,9.594-7.566,15.422-9.399c5.619-1.768,11.559-2.27,17.395-1.47c1.948,0.267,3.312,2.062,3.045,4.011
	c-0.261,1.908-1.991,3.263-3.906,3.059H43.54c-17.214-2.438-33.146,9.54-35.583,26.754C6.568,49.85,9.868,59.73,16.865,66.727
	l47.14,47.127l47.127-47.127c12.361-12.251,12.449-32.204,0.197-44.565C99.078,9.8,79.125,9.712,66.765,21.964
	c-0.068,0.068-0.137,0.136-0.204,0.204l-27.8,27.667c-1.396,1.396-3.661,1.396-5.057,0s-1.396-3.661,0-5.057l27.654-27.667
	c14.902-15.307,39.39-15.635,54.697-0.734c15.307,14.902,15.635,39.39,0.733,54.697c-0.103,0.105-0.204,0.209-0.308,0.313
	l-0.186,0.186l-0.252,0.252l-49.721,49.589c-0.648,0.679-1.551,1.054-2.489,1.032H63.886z"/>
<path d="M63.913,122.936H63.82c-1.042-0.025-2.037-0.447-2.78-1.178L11.411,72.141c-15.219-15.326-15.219-40.061,0-55.387
	c4.36-4.39,9.72-7.656,15.621-9.518c5.684-1.803,11.695-2.332,17.606-1.549c2.228,0.276,3.81,2.306,3.533,4.533
	c-0.132,1.063-0.678,2.032-1.521,2.695c-0.843,0.672-1.922,0.974-2.992,0.834H43.46C26.524,11.331,10.834,23.1,8.416,40.036
	c-0.003,0.023-0.007,0.046-0.01,0.069c-1.348,9.657,1.905,19.387,8.79,26.291l46.809,46.756l46.756-46.783
	c11.809-12.408,11.323-32.041-1.086-43.85c-11.979-11.4-30.795-11.397-42.771,0.006L39.105,50.193
	c-1.672,1.508-4.25,1.375-5.759-0.297c-1.399-1.552-1.399-3.91,0-5.461l27.667-27.667c15.707-14.876,40.5-14.203,55.375,1.504
	c14.15,14.939,14.328,38.279,0.41,53.434l-0.438,0.436l-49.709,49.617C65.937,122.504,64.947,122.93,63.913,122.936z
	 M63.913,121.942c0.777-0.002,1.519-0.323,2.052-0.887l50.119-50.053c14.758-15.042,14.557-39.191-0.451-53.984
	C100.604,2.234,76.437,2.43,61.649,17.456L33.982,45.123c-1.136,1.27-1.027,3.22,0.243,4.355c1.171,1.047,2.941,1.047,4.112,0
	l27.8-27.667C78.639,9.294,98.92,9.282,111.438,21.784c12.516,12.502,12.527,32.784,0.025,45.3l-47.458,47.472L16.508,67.084
	C4.012,54.611,3.994,34.369,16.468,21.873c7.114-7.126,17.169-10.485,27.138-9.063h0.159c1.692,0.119,3.16-1.157,3.279-2.849
	c0.11-1.571-0.986-2.971-2.538-3.241c-5.774-0.783-11.649-0.286-17.209,1.457c-5.745,1.812-10.965,4.992-15.21,9.267
	c-14.832,14.938-14.832,39.045,0,53.983l49.655,49.63c0.574,0.562,1.342,0.879,2.145,0.887H63.913z"/>
<path d="M107.545,57.99c-1.828-0.011-3.301-1.501-3.289-3.329c0.002-0.518,0.127-1.028,0.363-1.489
	c6.461-12.47-1.099-17.54-1.43-17.739c-1.605-0.881-2.193-2.898-1.313-4.504c0.878-1.601,2.885-2.191,4.49-1.32l0.277,0.159
	l0.186,0.119c4.461,2.899,11.014,12.126,3.707,26.304C109.963,57.31,108.803,58.007,107.545,57.99z M74.887,93.217
	c-1.828-0.012-3.3-1.503-3.289-3.33c0.006-0.866,0.35-1.695,0.959-2.311L98.027,62.12c1.112-1.45,3.189-1.723,4.64-0.61
	c1.45,1.113,1.724,3.191,0.61,4.641c-0.072,0.095-0.15,0.186-0.233,0.271l-0.185,0.199l-0.173,0.172L77.243,92.25
	C76.619,92.875,75.77,93.223,74.887,93.217z"/>
<path d="M74.887,93.878c-2.193-0.009-3.964-1.794-3.955-3.987c0.005-1.047,0.422-2.05,1.162-2.791l25.457-25.456
	c1.487-1.612,4-1.712,5.611-0.225c1.542,1.423,1.711,3.801,0.385,5.427l-0.225,0.252L77.693,92.727
	C76.947,93.467,75.938,93.881,74.887,93.878z M74.887,92.555c0.707-0.014,1.379-0.31,1.867-0.821l25.642-25.575l0.159-0.172
	c0.814-1.215,0.491-2.859-0.723-3.674c-1.008-0.677-2.348-0.582-3.249,0.232l-25.55,25.509c-1.03,1.037-1.025,2.714,0.012,3.744
	c0.49,0.488,1.15,0.764,1.842,0.771V92.555z M107.559,58.639c-2.193-0.006-3.967-1.79-3.96-3.983
	c0.002-0.627,0.151-1.245,0.438-1.802c6.262-12.113-1.112-16.825-1.191-16.878c-1.869-1.148-2.453-3.594-1.305-5.462
	c1.065-1.734,3.27-2.382,5.104-1.5l0.331,0.199l0.173,0.106c4.646,3.018,11.45,12.589,3.971,27.164
	C110.435,57.814,109.057,58.649,107.559,58.639z M104.766,29.873c-1.463-0.023-2.667,1.143-2.69,2.604
	c-0.017,0.979,0.509,1.886,1.366,2.36c0.119,0.066,8.538,5.441,1.707,18.625c-0.793,1.229-0.441,2.867,0.787,3.661
	c1.229,0.793,2.867,0.441,3.66-0.787c0.096-0.147,0.176-0.302,0.239-0.465c7.122-13.715,0.874-22.637-3.468-25.43l-0.172-0.119
	l-0.226-0.132C105.6,29.99,105.186,29.881,104.766,29.873z"/>
</svg>
