<svg t="1573638175812" class="icon" viewBox="0 0 1040 1024" version="1.1" xmlns="http://www.w3.org/2000/svg" p-id="2164" width="48" height="48"><path d="M983.04 385.588224l-45.515776 0-32.97792 0-29.191168-22.818816-24.89344-19.458048-0.279552-0.219136-0.006144 0c-6.960128-5.46304-15.72352-8.733696-25.259008-8.733696L358.4 334.358528c-12.920832 0-24.436736 5.988352-31.94368 15.3344 5.98016-10.930176 9.38496-23.471104 9.38496-36.808704 0-42.415104-34.383872-76.8-76.8-76.8s-76.8 34.384896-76.8 76.8c0 8.206336 1.30048 16.106496 3.684352 23.52128-7.057408-2.644992-14.44864-4.605952-22.096896-5.793792L163.828736 143.36c0-22.621184-18.337792-40.96-40.96-40.96L40.96 102.4c-22.621184 0-40.96 18.338816-40.96 40.96l0 737.28c0 22.622208 18.338816 40.96 40.96 40.96l81.907712 0c22.622208 0 40.96-18.337792 40.96-40.96L163.827712 733.755392l159.10912 0c7.084032 12.235776 20.306944 20.473856 35.463168 20.473856l449.49504 0 0 126.410752c0 22.622208 18.338816 40.96 40.96 40.96l81.907712 0c22.622208 0 40.96-18.337792 40.96-40.96L971.722752 754.229248l11.317248 0c22.622208 0 40.96-18.338816 40.96-40.96l0-286.72C1024 403.92704 1005.662208 385.588224 983.04 385.588224zM111.603712 847.872c0 11.31008-9.168896 20.48-20.48 20.48L72.704 868.352c-11.311104 0-20.48-9.16992-20.48-20.48l0-671.744c0-11.311104 9.168896-20.48 20.48-20.48l18.419712 0c11.311104 0 20.48 9.168896 20.48 20.48L111.603712 847.872zM321.460224 357.603328c-2.576384 5.361664-4.020224 11.370496-4.020224 17.7152l0 55.768064-58.918912 0c-1.458176-15.29856-5.972992-29.70624-12.93312-42.600448 4.370432 0.772096 8.860672 1.19808 13.453312 1.19808C284.768256 389.684224 307.52256 377.022464 321.460224 357.603328zM205.831168 431.086592l-42.003456 0L163.827712 384.055296C185.330688 390.523904 201.771008 408.646656 205.831168 431.086592zM163.827712 483.310592l153.612288 0 0 198.2208L163.827712 681.531392 163.827712 483.310592zM919.498752 847.872c0 11.31008-9.167872 20.48-20.48 20.48l-18.419712 0c-11.31008 0-20.48-9.16992-20.48-20.48l0-93.642752 59.379712 0L919.498752 847.872zM971.776 681.524224c0 11.312128-9.168896 20.48-20.48 20.48l-561.152 0c-11.311104 0-20.48-9.167872-20.48-20.48L369.664 407.063552c0-11.311104 9.168896-20.48 20.48-20.48l395.394048 0 32.97792 0 29.1584 22.793216 25.13408 19.647488 0.039936 0c6.965248 5.474304 15.739904 8.749056 25.285632 8.749056l0 0.04096 53.161984 0c11.311104 0 20.48 9.168896 20.48 20.48L971.776 681.524224z" p-id="2165"></path></svg>