<svg class="icon" viewBox="0 0 1040 1024" xmlns="http://www.w3.org/2000/svg" width="48" height="48"><path d="M983.04 385.588h-78.494l-29.19-22.819-24.894-19.458-.28-.219h-.006c-6.96-5.463-15.724-8.733-25.259-8.733H358.4c-12.92 0-24.437 5.988-31.944 15.334 5.98-10.93 9.385-23.471 9.385-36.809 0-42.415-34.384-76.8-76.8-76.8s-76.8 34.385-76.8 76.8a76.71 76.71 0 0 0 3.685 23.522 111.838 111.838 0 0 0-22.097-5.794V143.36c0-22.621-18.338-40.96-40.96-40.96H40.96C18.339 102.4 0 120.739 0 143.36v737.28c0 22.622 18.339 40.96 40.96 40.96h81.908c22.622 0 40.96-18.338 40.96-40.96V733.755h159.109c7.084 12.236 20.307 20.474 35.463 20.474h449.495V880.64c0 22.622 18.339 40.96 40.96 40.96h81.908c22.622 0 40.96-18.338 40.96-40.96V754.23h11.317c22.622 0 40.96-18.34 40.96-40.96V426.55c0-22.623-18.338-40.962-40.96-40.962zM111.604 847.872c0 11.31-9.17 20.48-20.48 20.48h-18.42c-11.311 0-20.48-9.17-20.48-20.48V176.128c0-11.311 9.169-20.48 20.48-20.48h18.42c11.31 0 20.48 9.169 20.48 20.48v671.744zM321.46 357.603a40.793 40.793 0 0 0-4.02 17.716v55.768h-58.919a111.898 111.898 0 0 0-12.933-42.6c4.37.771 8.86 1.197 13.453 1.197 25.727 0 48.482-12.662 62.42-32.08zm-115.629 73.484h-42.003v-47.032c21.503 6.469 37.943 24.592 42.003 47.032zm-42.003 52.224H317.44v198.22H163.828v-198.22zm755.67 364.561c0 11.31-9.167 20.48-20.48 20.48H880.6c-11.31 0-20.48-9.17-20.48-20.48v-93.643h59.38v93.643zm52.278-166.348c0 11.312-9.169 20.48-20.48 20.48H390.144c-11.311 0-20.48-9.168-20.48-20.48v-274.46c0-11.312 9.169-20.48 20.48-20.48h428.372l29.158 22.793 25.134 19.647h.04c6.966 5.475 15.74 8.75 25.286 8.75v.04h53.162c11.311 0 20.48 9.17 20.48 20.48v223.23z"/></svg>