<svg xmlns="http://www.w3.org/2000/svg" width="155" height="165.667" viewBox="21.5 17.5 155 165.667"><path d="M32.266 145.547s-7.363 31.035 11.563 34.961c26.152 5.43 22.383-32.578 22.383-32.578l-33.946-2.383zM69.707 37.383C44.785 32.207 33.574 64.688 31.934 71.66c-4.063 17.441 5.02 42.285 1.699 56.504l38.906 3.398s10.273-22.734 15.156-43.652c0 0 11.875-44.336-17.988-50.527zm98.867 17.832c-1.348-7.07-11.25-40.117-36.641-35.898-30.449 5.059-20.391 50.039-20.391 50.039 4.004 21.191 13.379 44.414 13.379 44.414l39.453-1.895c-2.733-14.395 7.54-39.004 4.2-56.66zm-40.41 73.594s-5.43 38.516 20.996 34.023c19.121-3.262 13.105-35.117 13.105-35.117l-34.101 1.094z"/></svg>