<?xml version="1.0" encoding="utf-8"?>
<!-- Generator: Adobe Illustrator 16.0.0, SVG Export Plug-In . SVG Version: 6.00 Build 0)  -->
<!DOCTYPE svg PUBLIC "-//W3C//DTD SVG 1.1//EN" "http://www.w3.org/Graphics/SVG/1.1/DTD/svg11.dtd">
<svg version="1.1" id="图层_1" xmlns="http://www.w3.org/2000/svg" xmlns:xlink="http://www.w3.org/1999/xlink" x="0px" y="0px"
	 width="155px" height="165.667px" viewBox="21.5 17.5 155 165.667" enable-background="new 21.5 17.5 155 165.667"
	 xml:space="preserve">
<path d="M32.266,145.547c0,0-7.363,31.035,11.563,34.961c26.152,5.43,22.383-32.578,22.383-32.578L32.266,145.547z M69.707,37.383
	C44.785,32.207,33.574,64.688,31.934,71.66c-4.063,17.441,5.02,42.285,1.699,56.504l38.906,3.398c0,0,10.273-22.734,15.156-43.652
	C87.695,87.91,99.57,43.574,69.707,37.383z M168.574,55.215c-1.348-7.07-11.25-40.117-36.641-35.898
	c-30.449,5.059-20.391,50.039-20.391,50.039c4.004,21.191,13.379,44.414,13.379,44.414l39.453-1.895
	C161.641,97.48,171.914,72.871,168.574,55.215z M128.164,128.809c0,0-5.43,38.516,20.996,34.023
	c19.121-3.262,13.105-35.117,13.105-35.117L128.164,128.809L128.164,128.809z"/>
</svg>
