<svg class="icon" viewBox="0 0 1024 1024" xmlns="http://www.w3.org/2000/svg" width="64" height="64"><path d="M684.327 267.608c10.296 0 20.42.78 30.602 1.898C687.516 141.848 551.073 47.024 395.271 47.024c-174.151 0-316.802 118.652-316.802 269.418 0 86.992 47.438 158.431 126.767 213.925L173.57 625.64l110.765-55.495c39.608 7.776 71.384 15.834 110.936 15.834 9.957 0 19.804-.447 29.539-1.173-6.154-21.205-9.79-43.36-9.79-66.463.054-138.406 118.877-250.735 269.306-250.735zM514.04 181.733c23.943 0 39.663 15.72 39.663 39.553 0 23.717-15.718 39.608-39.663 39.608-23.667 0-47.496-15.89-47.496-39.608 0-23.888 23.774-39.553 47.496-39.553zm-221.702 79.16c-23.777 0-47.722-15.89-47.722-39.608 0-23.833 23.944-39.553 47.722-39.553 23.772 0 39.552 15.665 39.552 39.553.001 23.718-15.779 39.608-39.552 39.608zM973.55 514.538c0-126.656-126.766-229.87-269.141-229.87-150.762 0-269.42 103.27-269.42 229.87 0 126.991 118.713 229.866 269.42 229.866 31.554 0 63.383-7.888 95.05-15.828l86.877 47.66-23.833-79.21c63.607-47.781 111.047-111.05 111.047-182.488zm-356.522-39.665c-15.718 0-31.664-15.663-31.664-31.665 0-15.775 15.946-31.659 31.664-31.659 24.056 0 39.665 15.885 39.665 31.66-.001 16-15.61 31.664-39.665 31.664zm174.261 0c-15.608 0-31.492-15.663-31.492-31.665 0-15.775 15.83-31.659 31.492-31.659 23.833 0 39.665 15.885 39.665 31.66-.001 16-15.832 31.664-39.665 31.664z"/></svg>