<?xml version="1.0" encoding="utf-8"?>
<!-- Generator: Adobe Illustrator 16.0.0, SVG Export Plug-In . SVG Version: 6.00 Build 0)  -->
<!DOCTYPE svg PUBLIC "-//W3C//DTD SVG 1.1//EN" "http://www.w3.org/Graphics/SVG/1.1/DTD/svg11.dtd">
<svg version="1.1" id="图层_1" xmlns="http://www.w3.org/2000/svg" xmlns:xlink="http://www.w3.org/1999/xlink" x="0px" y="0px"
	 width="183.52px" height="200px" viewBox="8.146 0 183.52 200" enable-background="new 8.146 0 183.52 200" xml:space="preserve">
<path d="M39.581,174.18v-56.816c0-33.986,27.559-61.55,61.58-61.55s61.579,27.564,61.579,61.55v56.816h21.022
	c4.365,0,7.904,3.539,7.904,7.904c0,4.366-3.539,7.905-7.904,7.905H16.051c-4.366,0-7.905-3.539-7.905-7.905
	c0-4.365,3.539-7.904,7.905-7.904H39.581L39.581,174.18z M105.618,80.617l-30.375,50.005h24.292l-6.082,37.504l30.375-50.005H99.536
	L105.618,80.617L105.618,80.617z M152.199,25.687c2.853,1.659,3.826,5.322,2.184,8.172l-10.919,18.978l-10.322-5.971l10.919-18.978
	c1.624-2.85,5.27-3.824,8.104-2.201H152.199L152.199,25.687z M101.143,11.634c3.573,0,6.461,2.688,6.461,6.025v21.503H94.681V17.642
	C94.681,14.322,97.568,11.634,101.143,11.634L101.143,11.634L101.143,11.634z M50.121,25.687c2.833-1.642,6.479-0.667,8.122,2.165
	c0,0,0,0.018,0.018,0.018L69.18,46.847l-10.323,5.971L47.937,33.841C46.295,30.991,47.27,27.346,50.121,25.687L50.121,25.687z
	 M12.762,63.191c1.624-2.851,5.27-3.843,8.122-2.201c0,0,0.018,0,0.018,0.019l18.914,10.968L33.86,82.331L14.945,71.344
	C12.094,69.703,11.119,66.041,12.762,63.191L12.762,63.191z M189.559,63.191c1.643,2.85,0.668,6.512-2.184,8.171l-18.914,10.95
	l-5.956-10.354l18.914-10.968c2.834-1.642,6.479-0.667,8.122,2.165C189.541,63.173,189.559,63.173,189.559,63.191L189.559,63.191
	L189.559,63.191z"/>
</svg>
